<svg width="82" height="82" viewBox="0 0 82 82" fill="none" xmlns="http://www.w3.org/2000/svg">
<g filter="url(#filter0_i_0_11)">
<path d="M43.4244 81.4522C39.225 80.7505 36.2122 77.9244 33.5556 75.4309C32.1329 74.0962 30.7875 72.8344 29.3497 71.9288C26.1009 69.8838 23.204 69.107 20.4015 68.356C15.8716 67.1436 11.1872 65.8882 6.14656 59.5472C1.0716 53.1612 -0.831776 47.0819 0.329134 40.9619C1.46644 34.96 5.51782 29.7713 8.91901 25.9238C11.1378 23.411 12.6893 20.3016 14.3287 17.0099C15.7557 14.1473 17.2299 11.1881 19.2299 8.50368C24.3606 1.6219 29.3562 -0.847981 35.9332 0.250699C38.4696 0.673433 41.0769 1.58542 43.8364 2.55106C46.2763 3.40297 48.7977 4.28491 51.6238 4.97802C51.8963 5.04454 52.186 5.10463 52.4821 5.15399C53.9198 5.39432 55.4348 5.40076 57.0356 5.40934C58.7459 5.41793 60.5119 5.42651 62.308 5.72693C64.4582 6.08529 66.3079 6.81703 67.958 7.96077C73.0609 11.495 73.5287 15.5314 73.9815 19.4325C74.166 21.0226 74.357 22.6642 74.8656 24.3702C75.5158 26.5461 76.6874 28.5524 77.9277 30.679C79.8246 33.9278 81.786 37.2882 81.9812 41.5134C82.3568 49.6462 77.0179 54.1633 72.9708 56.8542C71.6725 57.719 70.3936 58.3992 69.1576 59.058C66.5868 60.427 64.368 61.6094 62.911 63.9934C62.4754 64.7059 62.2436 65.9269 62.0205 67.1071C61.7522 68.5234 61.4733 69.989 60.7887 71.3065C58.3124 76.0789 52.8963 81.1067 46.3793 81.5874C45.375 81.656 44.3815 81.611 43.4244 81.4522Z" fill="#4D5DFA"/>
<path d="M7.82683 58.2125C15.4339 67.783 21.5839 64.502 30.4935 70.1113C35.5706 73.3065 39.0813 79.9651 46.2227 79.4415C51.5938 79.0467 56.4778 74.9524 58.8854 70.313C60.0098 68.1457 59.8553 64.8776 61.0806 62.8712C63.6106 58.7318 67.7864 57.7211 71.7842 55.0645C76.3913 52.0002 80.1359 48.0669 79.8376 41.61C79.5479 35.3119 74.5588 30.8485 72.8077 24.9817C70.9752 18.8403 72.9451 14.025 66.735 9.72038C61.7952 6.29773 56.246 8.31913 51.111 7.05951C37.9847 3.84287 30.8133 -3.44876 20.9488 9.78476C16.8223 15.3211 14.9575 22.3273 10.5242 27.3422C2.64457 36.2625 -2.26515 45.5155 7.82683 58.2125Z" fill="#4D5DFA"/>
<g clip-path="url(#clip0_0_11)">
<path d="M40.506 51.6932C46.6375 51.6932 51.7052 46.6255 51.7052 40.494C51.7052 36.3825 49.4343 32.749 46.0876 30.7889V26.7729C46.0876 24.9084 44.9642 23.7849 43.0996 23.7849H37.9841C36.1195 23.7849 34.9841 24.9084 34.9841 26.7729V30.765C31.6136 32.7132 29.3068 36.3586 29.3068 40.494C29.3068 46.6255 34.3745 51.6932 40.506 51.6932ZM51.8605 30.753L54.3228 28.2789C54.753 27.8486 54.753 27.1195 54.3228 26.6893C53.8925 26.259 53.1514 26.259 52.7212 26.6893L50.2589 29.1514C49.8287 29.5697 49.8287 30.3227 50.2589 30.753C50.6893 31.1833 51.4303 31.1833 51.8605 30.753ZM55.4223 41.6175H58.9004C59.5219 41.6175 60.0359 41.1036 60.0359 40.494C60.0359 39.8725 59.5219 39.3586 58.9004 39.3586H55.4223C54.8128 39.3586 54.2988 39.8725 54.2988 40.494C54.2988 41.1036 54.8128 41.6175 55.4223 41.6175ZM50.2589 51.8367L52.7212 54.2869C53.1514 54.7291 53.8925 54.7291 54.3228 54.2869C54.753 53.8566 54.753 53.1275 54.3228 52.6972L51.8605 50.2351C51.4303 49.7929 50.6893 49.7929 50.2589 50.2351C49.8287 50.6534 49.8287 51.4065 50.2589 51.8367ZM41.6773 55.3985C41.6773 54.777 41.1634 54.2629 40.5419 54.2629C39.9324 54.2629 39.4183 54.777 39.4183 55.3985V58.8766C39.4183 59.4861 39.9324 60 40.5419 60C41.1634 60 41.6773 59.4861 41.6773 58.8766V55.3985ZM30.7769 51.8367C31.2191 51.4065 31.2191 50.6534 30.7769 50.2351C30.3466 49.7929 29.6056 49.7929 29.1753 50.2351L26.7251 52.6972C26.2829 53.1275 26.2829 53.8566 26.7251 54.2869C27.1434 54.7291 27.8845 54.7291 28.3147 54.2869L30.7769 51.8367ZM25.6135 41.6175C26.2231 41.6175 26.7371 41.1036 26.7371 40.494C26.7371 39.8725 26.2231 39.3586 25.6135 39.3586H22.1355C21.5139 39.3586 21 39.8725 21 40.494C21 41.1036 21.5139 41.6175 22.1355 41.6175H25.6135ZM29.1753 30.753C29.6056 31.1833 30.3466 31.1833 30.7769 30.753C31.2191 30.3227 31.2191 29.5697 30.7769 29.1514L28.3147 26.6893C27.8845 26.259 27.1434 26.259 26.7251 26.6893C26.2829 27.1195 26.2829 27.8486 26.7251 28.2789L29.1753 30.753Z" fill="#F6FAFD"/>
<path d="M40.5418 42.2749C39.8606 42.2749 39.4782 41.8686 39.4542 41.1514L39.2749 35.008C39.251 34.243 39.7769 33.7171 40.5299 33.7171C41.2709 33.7171 41.8207 34.255 41.7968 35.02L41.6055 41.1514C41.5817 41.8804 41.1992 42.2749 40.5418 42.2749ZM40.5299 47.1156C39.6932 47.1156 38.9641 46.4224 38.9641 45.5977C38.9641 44.761 39.6813 44.0797 40.5299 44.0797C41.3785 44.0797 42.0956 44.749 42.0956 45.5977C42.0956 46.4342 41.3665 47.1156 40.5299 47.1156Z" fill="#4D5DFA"/>
</g>
</g>
<defs>
<filter id="filter0_i_0_11" x="0" y="0" width="82" height="85.6185" filterUnits="userSpaceOnUse" color-interpolation-filters="sRGB">
<feFlood flood-opacity="0" result="BackgroundImageFix"/>
<feBlend mode="normal" in="SourceGraphic" in2="BackgroundImageFix" result="shape"/>
<feColorMatrix in="SourceAlpha" type="matrix" values="0 0 0 0 0 0 0 0 0 0 0 0 0 0 0 0 0 0 127 0" result="hardAlpha"/>
<feOffset dy="4"/>
<feGaussianBlur stdDeviation="2"/>
<feComposite in2="hardAlpha" operator="arithmetic" k2="-1" k3="1"/>
<feColorMatrix type="matrix" values="0 0 0 0 0 0 0 0 0 0 0 0 0 0 0 0 0 0 0.25 0"/>
<feBlend mode="normal" in2="shape" result="effect1_innerShadow_0_11"/>
</filter>
<clipPath id="clip0_0_11">
<rect width="39.0359" height="39" fill="white" transform="translate(21 21)"/>
</clipPath>
</defs>
</svg>
