<svg width="187" height="72" viewBox="0 0 187 72" fill="none" xmlns="http://www.w3.org/2000/svg">
<g filter="url(#filter0_d_0_21)">
<path d="M0 0H183V46H0V0Z" fill="#4D5DFA"/>
</g>
<path d="M41.9186 13.5H52.4186C54.1686 13.5 55.4353 13.9 56.2186 14.7C57.0186 15.4833 57.4186 16.75 57.4186 18.5V20.75C57.4186 22.1333 57.1853 23.2083 56.7186 23.975C56.2686 24.7417 55.5436 25.25 54.5436 25.5L57.6686 31H52.7936L49.9186 25.75H46.4186V31H41.9186V13.5ZM52.9186 18.5C52.9186 17.5 52.4186 17 51.4186 17H46.4186V22.25H51.4186C52.4186 22.25 52.9186 21.75 52.9186 20.75V18.5ZM64.4535 20.625C63.7868 20.625 63.4535 20.9583 63.4535 21.625V23H67.7035V21.625C67.7035 20.9583 67.3701 20.625 66.7035 20.625H64.4535ZM71.5785 30.75C68.3618 31.0833 65.4451 31.25 62.8285 31.25C61.6951 31.25 60.7868 30.9083 60.1035 30.225C59.4201 29.5417 59.0785 28.6333 59.0785 27.5V21.5C59.0785 20.25 59.4285 19.275 60.1285 18.575C60.8451 17.8583 61.8285 17.5 63.0785 17.5H68.0785C69.3285 17.5 70.3035 17.8583 71.0035 18.575C71.7201 19.275 72.0785 20.25 72.0785 21.5V26.125H63.4535V27.125C63.4535 27.375 63.5368 27.5833 63.7035 27.75C63.8701 27.9167 64.0785 28 64.3285 28C65.9785 28 68.3951 27.875 71.5785 27.625V30.75ZM81.3604 21.125C80.477 21.125 79.477 21.2917 78.3604 21.625V27.625H82.1104C82.777 27.625 83.1104 27.2917 83.1104 26.625V22C83.1104 21.75 83.027 21.5417 82.8604 21.375C82.6937 21.2083 82.4854 21.125 82.2354 21.125H81.3604ZM78.3604 31V35.25H73.9854V17.75H77.8604L78.1104 19C78.8937 18.4833 79.6937 18.1083 80.5104 17.875C81.3437 17.625 82.0437 17.5 82.6104 17.5H83.7354C84.8687 17.5 85.777 17.8417 86.4604 18.525C87.1437 19.2083 87.4854 20.1167 87.4854 21.25V27C87.4854 28.25 87.127 29.2333 86.4104 29.95C85.7104 30.65 84.7354 31 83.4854 31H78.3604ZM102.899 27.25C102.899 28.5 102.541 29.4833 101.824 30.2C101.124 30.9 100.149 31.25 98.8991 31.25H93.1491C91.8991 31.25 90.9158 30.9 90.1991 30.2C89.4991 29.4833 89.1491 28.5 89.1491 27.25V21.5C89.1491 20.25 89.4991 19.275 90.1991 18.575C90.9158 17.8583 91.8991 17.5 93.1491 17.5H98.8991C100.149 17.5 101.124 17.8583 101.824 18.575C102.541 19.275 102.899 20.25 102.899 21.5V27.25ZM98.5241 21.875C98.5241 21.2083 98.1908 20.875 97.5241 20.875H94.5241C93.8574 20.875 93.5241 21.2083 93.5241 21.875V26.875C93.5241 27.5417 93.8574 27.875 94.5241 27.875H97.5241C98.1908 27.875 98.5241 27.5417 98.5241 26.875V21.875ZM112.438 21.375C111.388 21.375 110.304 21.625 109.188 22.125V31H104.813V17.75H108.688L108.938 19.375C110.371 18.125 111.871 17.5 113.438 17.5H114.563V21.375H112.438ZM125.229 31C123.612 31.1667 122.029 31.25 120.479 31.25C119.345 31.25 118.437 30.9083 117.754 30.225C117.07 29.5417 116.729 28.6333 116.729 27.5V21.125H115.229V17.75H116.729L117.229 14.75H121.104V17.75H124.229V21.125H121.104V26.875C121.104 27.125 121.187 27.3333 121.354 27.5C121.52 27.6667 121.729 27.75 121.979 27.75H125.229V31ZM135.156 31H126.156V27.5H128.406V17H126.156V13.5H135.156V17H132.906V27.5H135.156V31ZM146.071 31C144.454 31.1667 142.871 31.25 141.321 31.25C140.187 31.25 139.279 30.9083 138.596 30.225C137.912 29.5417 137.571 28.6333 137.571 27.5V21.125H136.071V17.75H137.571L138.071 14.75H141.946V17.75H145.071V21.125H141.946V26.875C141.946 27.125 142.029 27.3333 142.196 27.5C142.362 27.6667 142.571 27.75 142.821 27.75H146.071V31Z" fill="white"/>
<path d="M32.4736 64.332L29.1836 58.914H30.7376L33.1596 63.184L35.5816 58.914H37.1356L33.8316 64.29V68H32.4736V64.332ZM40.8761 68.14C40.2787 68.14 39.8307 68.1167 39.5321 68.07C39.2334 68.0327 38.9347 67.944 38.6361 67.804C38.3281 67.664 38.1041 67.44 37.9641 67.132C37.8241 66.8147 37.7541 66.39 37.7541 65.858V63.506C37.7541 63.086 37.8054 62.7173 37.9081 62.4C38.0107 62.0827 38.1461 61.8353 38.3141 61.658C38.4541 61.4993 38.6641 61.378 38.9441 61.294C39.2334 61.2007 39.5274 61.14 39.8261 61.112C40.1621 61.0933 40.5121 61.084 40.8761 61.084C41.3614 61.084 41.7254 61.098 41.9681 61.126C42.2201 61.1447 42.4861 61.1913 42.7661 61.266C43.0554 61.35 43.2794 61.476 43.4381 61.644C43.5967 61.812 43.7321 62.0547 43.8441 62.372C43.9467 62.6987 43.9981 63.0767 43.9981 63.506V65.858C43.9981 66.6513 43.8161 67.23 43.4521 67.594C43.3027 67.7433 43.0881 67.86 42.8081 67.944C42.5281 68.028 42.2387 68.084 41.9401 68.112C41.5854 68.1307 41.2307 68.14 40.8761 68.14ZM40.8761 67.314C41.2681 67.314 41.5527 67.3047 41.7301 67.286C41.9074 67.2673 42.0801 67.216 42.2481 67.132C42.4161 67.0573 42.5327 66.936 42.5981 66.768C42.6727 66.5907 42.7101 66.348 42.7101 66.04V63.296C42.7101 62.876 42.6587 62.5727 42.5561 62.386C42.4534 62.19 42.2761 62.064 42.0241 62.008C41.7814 61.9427 41.3987 61.91 40.8761 61.91C40.3534 61.91 39.9661 61.9427 39.7141 62.008C39.4714 62.064 39.2987 62.19 39.1961 62.386C39.0934 62.5727 39.0421 62.876 39.0421 63.296V66.04C39.0421 66.348 39.0747 66.5907 39.1401 66.768C39.2147 66.936 39.3361 67.0573 39.5041 67.132C39.6721 67.216 39.8447 67.2673 40.0221 67.286C40.1994 67.3047 40.4841 67.314 40.8761 67.314ZM47.9818 68.14C47.1138 68.14 46.5024 67.986 46.1478 67.678C45.8024 67.3607 45.6298 66.866 45.6298 66.194V61.224H46.8898V66.124C46.8898 66.3013 46.9038 66.446 46.9318 66.558C46.9691 66.6607 47.0298 66.768 47.1138 66.88C47.2818 67.1227 47.6924 67.244 48.3458 67.244C49.0364 67.244 49.5218 67.1787 49.8018 67.048C50.0724 66.9173 50.2078 66.6793 50.2078 66.334V61.224H51.4678V68H50.2078V67.174C50.0864 67.818 49.3444 68.14 47.9818 68.14ZM53.3218 61.224H54.5118V62.33C54.5118 62.1153 54.6052 61.9147 54.7918 61.728C54.9785 61.532 55.2165 61.378 55.5058 61.266C55.7952 61.1447 56.0798 61.084 56.3598 61.084H56.9758V62.162H56.2758C55.6785 62.162 55.2445 62.2413 54.9738 62.4C54.7125 62.5493 54.5818 62.8247 54.5818 63.226V68H53.3218V61.224ZM60.8739 58.914H64.1219C64.8966 58.914 65.5126 58.9933 65.9699 59.152C66.3899 59.3013 66.6699 59.488 66.8099 59.712C66.9593 59.936 67.0339 60.244 67.0339 60.636V61.854C67.0339 62.218 66.9313 62.5027 66.7259 62.708C66.5206 62.904 66.2079 63.0487 65.7879 63.142V63.198C66.2826 63.282 66.6793 63.4547 66.9779 63.716C67.2859 63.968 67.4399 64.2853 67.4399 64.668V66.194C67.4399 66.8567 67.1926 67.3233 66.6979 67.594C66.2033 67.8647 65.3773 68 64.2199 68H60.8739V58.914ZM64.1639 62.89C64.7333 62.89 65.1393 62.806 65.3819 62.638C65.6339 62.4607 65.7599 62.1853 65.7599 61.812V60.748C65.7599 60.4027 65.6339 60.16 65.3819 60.02C65.1299 59.88 64.7099 59.81 64.1219 59.81H62.2319V62.89H64.1639ZM64.2199 67.062C64.9013 67.062 65.3819 66.992 65.6619 66.852C65.9419 66.712 66.0819 66.474 66.0819 66.138V64.766C66.0819 64.5233 66.0306 64.332 65.9279 64.192C65.8346 64.0427 65.6853 63.9353 65.4799 63.87C65.2746 63.814 65.0926 63.7813 64.9339 63.772C64.7753 63.7533 64.5373 63.744 64.2199 63.744H62.2319V67.062H64.2199ZM71.8985 68.14C69.8265 68.14 68.7905 67.4493 68.7905 66.068V63.394C68.7905 62.5727 69.0239 61.9847 69.4905 61.63C69.9665 61.266 70.7319 61.084 71.7865 61.084C72.7852 61.084 73.5039 61.2567 73.9425 61.602C74.3905 61.9473 74.6145 62.5447 74.6145 63.394V64.892H70.0645V65.914C70.0645 66.3807 70.2279 66.7167 70.5545 66.922C70.8812 67.1273 71.3852 67.23 72.0665 67.23C72.7105 67.23 73.4712 67.118 74.3485 66.894V67.86C73.4899 68.0467 72.6732 68.14 71.8985 68.14ZM73.3545 64.066V63.002C73.3545 62.5913 73.2285 62.3113 72.9765 62.162C72.7339 62.0033 72.3139 61.924 71.7165 61.924C71.1379 61.924 70.7179 62.0033 70.4565 62.162C70.1952 62.3113 70.0645 62.5913 70.0645 63.002V64.066H73.3545ZM78.2734 68.14C77.5547 68.14 76.78 68.084 75.9494 67.972V67.006C77.0414 67.1833 77.8254 67.272 78.3014 67.272C78.8987 67.272 79.328 67.216 79.5894 67.104C79.8507 66.9827 79.9814 66.7633 79.9814 66.446V65.76C79.9814 65.4707 79.8834 65.2653 79.6874 65.144C79.4914 65.0227 79.174 64.962 78.7354 64.962H77.9654C77.2654 64.962 76.7287 64.8173 76.3554 64.528C75.9914 64.2387 75.8094 63.8327 75.8094 63.31V62.68C75.8094 61.616 76.8174 61.084 78.8334 61.084C78.9827 61.084 79.6687 61.1213 80.8914 61.196V62.106C80.0607 61.9753 79.356 61.91 78.7774 61.91C78.1147 61.91 77.662 61.9753 77.4194 62.106C77.1767 62.2367 77.0554 62.456 77.0554 62.764V63.338C77.0554 63.7953 77.4707 64.024 78.3014 64.024H79.0854C80.5134 64.024 81.2274 64.556 81.2274 65.62V66.208C81.2274 66.908 80.9847 67.4073 80.4994 67.706C80.014 67.9953 79.272 68.14 78.2734 68.14ZM85.4776 68.14C84.899 68.14 84.4463 68.0793 84.1196 67.958C83.793 67.8273 83.555 67.6127 83.4056 67.314C83.2656 67.006 83.1956 66.5767 83.1956 66.026V62.05H81.6836V61.224H83.1956V59.124H84.4696V61.224H86.8916V62.05H84.4696V66.096C84.4696 66.432 84.507 66.684 84.5816 66.852C84.6656 67.02 84.8056 67.1413 85.0016 67.216C85.207 67.2813 85.501 67.314 85.8836 67.314C86.005 67.314 86.341 67.2767 86.8916 67.202V68.028C86.4156 68.1027 85.9443 68.14 85.4776 68.14ZM90.9123 58.914H94.1603C94.935 58.914 95.551 58.9933 96.0083 59.152C96.4283 59.3013 96.7083 59.488 96.8483 59.712C96.9977 59.936 97.0723 60.244 97.0723 60.636V61.854C97.0723 62.218 96.9697 62.5027 96.7643 62.708C96.559 62.904 96.2463 63.0487 95.8263 63.142V63.198C96.321 63.282 96.7177 63.4547 97.0163 63.716C97.3243 63.968 97.4783 64.2853 97.4783 64.668V66.194C97.4783 66.8567 97.231 67.3233 96.7363 67.594C96.2417 67.8647 95.4157 68 94.2583 68H90.9123V58.914ZM94.2023 62.89C94.7717 62.89 95.1777 62.806 95.4203 62.638C95.6723 62.4607 95.7983 62.1853 95.7983 61.812V60.748C95.7983 60.4027 95.6723 60.16 95.4203 60.02C95.1683 59.88 94.7483 59.81 94.1603 59.81H92.2703V62.89H94.2023ZM94.2583 67.062C94.9397 67.062 95.4203 66.992 95.7003 66.852C95.9803 66.712 96.1203 66.474 96.1203 66.138V64.766C96.1203 64.5233 96.069 64.332 95.9663 64.192C95.873 64.0427 95.7237 63.9353 95.5183 63.87C95.313 63.814 95.131 63.7813 94.9723 63.772C94.8137 63.7533 94.5757 63.744 94.2583 63.744H92.2703V67.062H94.2583ZM101.433 68.14C100.565 68.14 99.9536 67.986 99.5989 67.678C99.2536 67.3607 99.0809 66.866 99.0809 66.194V61.224H100.341V66.124C100.341 66.3013 100.355 66.446 100.383 66.558C100.42 66.6607 100.481 66.768 100.565 66.88C100.733 67.1227 101.144 67.244 101.797 67.244C102.488 67.244 102.973 67.1787 103.253 67.048C103.524 66.9173 103.659 66.6793 103.659 66.334V61.224H104.919V68H103.659V67.174C103.538 67.818 102.796 68.14 101.433 68.14ZM109.335 71.08C108.411 71.08 107.632 71.0287 106.997 70.926V70.03C108.117 70.1607 108.934 70.226 109.447 70.226C110.091 70.226 110.558 70.1233 110.847 69.918C111.146 69.7127 111.295 69.372 111.295 68.896V67.272C111.276 67.5707 111.071 67.79 110.679 67.93C110.296 68.07 109.811 68.14 109.223 68.14C108.523 68.14 107.977 68.0747 107.585 67.944C107.202 67.8133 106.927 67.5987 106.759 67.3C106.6 67.0013 106.521 66.5953 106.521 66.082V63.324C106.521 62.5213 106.736 61.9473 107.165 61.602C107.604 61.2567 108.318 61.084 109.307 61.084C110.483 61.084 111.174 61.35 111.379 61.882V61.224H112.555V68.644C112.555 69.2693 112.438 69.7593 112.205 70.114C111.972 70.4687 111.622 70.716 111.155 70.856C110.688 71.0053 110.082 71.08 109.335 71.08ZM109.489 67.3C110.152 67.3 110.618 67.2207 110.889 67.062C111.16 66.9033 111.295 66.6047 111.295 66.166V63.1C111.295 62.792 111.244 62.5587 111.141 62.4C111.048 62.2413 110.87 62.1293 110.609 62.064C110.348 61.9893 109.965 61.952 109.461 61.952C108.985 61.952 108.626 61.9847 108.383 62.05C108.15 62.1153 107.986 62.232 107.893 62.4C107.809 62.5587 107.767 62.792 107.767 63.1V66.166C107.767 66.4833 107.814 66.7213 107.907 66.88C108 67.0387 108.168 67.1507 108.411 67.216C108.654 67.272 109.013 67.3 109.489 67.3ZM119.628 59.866H116.548V58.914H124.066V59.866H121V68H119.628V59.866ZM125.16 61.224H126.35V62.33C126.35 62.1153 126.443 61.9147 126.63 61.728C126.816 61.532 127.054 61.378 127.344 61.266C127.633 61.1447 127.918 61.084 128.198 61.084H128.814V62.162H128.114C127.516 62.162 127.082 62.2413 126.812 62.4C126.55 62.5493 126.42 62.8247 126.42 63.226V68H125.16V61.224ZM131.821 68.14C131.177 68.14 130.677 68.0793 130.323 67.958C129.977 67.8367 129.725 67.622 129.567 67.314C129.417 67.006 129.343 66.5627 129.343 65.984C129.343 65.4707 129.413 65.074 129.553 64.794C129.702 64.5047 129.949 64.2993 130.295 64.178C130.649 64.0567 131.149 63.996 131.793 63.996H133.823V62.918C133.823 62.666 133.771 62.4747 133.669 62.344C133.575 62.204 133.412 62.106 133.179 62.05C132.955 61.994 132.623 61.966 132.185 61.966C131.485 61.966 130.71 62.022 129.861 62.134V61.21C130.785 61.126 131.62 61.084 132.367 61.084C133.151 61.084 133.729 61.1447 134.103 61.266C134.476 61.378 134.733 61.5787 134.873 61.868C135.013 62.1573 135.083 62.6053 135.083 63.212V68H133.865V67.356C133.762 67.8787 133.081 68.14 131.821 68.14ZM132.031 67.314C132.488 67.314 132.875 67.2813 133.193 67.216C133.613 67.132 133.823 66.936 133.823 66.628V64.78H131.877C131.475 64.78 131.186 64.8127 131.009 64.878C130.831 64.934 130.715 65.046 130.659 65.214C130.603 65.382 130.575 65.6527 130.575 66.026C130.575 66.362 130.607 66.6233 130.673 66.81C130.738 66.9873 130.855 67.118 131.023 67.202C131.191 67.2767 131.443 67.314 131.779 67.314H132.031ZM139.664 68.14C139.198 68.14 138.857 68.1307 138.642 68.112C138.437 68.0933 138.199 68.0467 137.928 67.972C137.639 67.8973 137.415 67.7853 137.256 67.636C137.098 67.4867 136.962 67.2673 136.85 66.978C136.738 66.698 136.682 66.348 136.682 65.928V63.436C136.682 62.68 136.827 62.1387 137.116 61.812C137.275 61.6253 137.434 61.4853 137.592 61.392C137.76 61.2893 137.975 61.2193 138.236 61.182C138.498 61.1447 138.731 61.1213 138.936 61.112C139.142 61.0933 139.431 61.084 139.804 61.084C140.448 61.084 141.092 61.154 141.736 61.294V62.218C140.99 62.0313 140.294 61.938 139.65 61.938C139.165 61.938 138.806 61.9753 138.572 62.05C138.348 62.1153 138.19 62.2413 138.096 62.428C138.012 62.6053 137.97 62.8807 137.97 63.254V66.026C137.97 66.3713 138.017 66.628 138.11 66.796C138.213 66.964 138.39 67.0853 138.642 67.16C138.904 67.2253 139.286 67.258 139.79 67.258C140.472 67.258 141.153 67.1693 141.834 66.992V67.944C141.2 68.0747 140.476 68.14 139.664 68.14ZM143.095 58.2H144.355V68H143.095V58.2ZM144.509 64.29L147.365 61.224H148.905L145.965 64.29L149.171 68H147.603L144.509 64.29ZM152.809 68.14C150.737 68.14 149.701 67.4493 149.701 66.068V63.394C149.701 62.5727 149.935 61.9847 150.401 61.63C150.877 61.266 151.643 61.084 152.697 61.084C153.696 61.084 154.415 61.2567 154.853 61.602C155.301 61.9473 155.525 62.5447 155.525 63.394V64.892H150.975V65.914C150.975 66.3807 151.139 66.7167 151.465 66.922C151.792 67.1273 152.296 67.23 152.977 67.23C153.621 67.23 154.382 67.118 155.259 66.894V67.86C154.401 68.0467 153.584 68.14 152.809 68.14ZM154.265 64.066V63.002C154.265 62.5913 154.139 62.3113 153.887 62.162C153.645 62.0033 153.225 61.924 152.627 61.924C152.049 61.924 151.629 62.0033 151.367 62.162C151.106 62.3113 150.975 62.5913 150.975 63.002V64.066H154.265ZM157.112 61.224H158.302V62.33C158.302 62.1153 158.396 61.9147 158.582 61.728C158.769 61.532 159.007 61.378 159.296 61.266C159.586 61.1447 159.87 61.084 160.15 61.084H160.766V62.162H160.066C159.469 62.162 159.035 62.2413 158.764 62.4C158.503 62.5493 158.372 62.8247 158.372 63.226V68H157.112V61.224Z" fill="#4D5DFA"/>
<defs>
<filter id="filter0_d_0_21" x="0" y="0" width="187" height="50" filterUnits="userSpaceOnUse" color-interpolation-filters="sRGB">
<feFlood flood-opacity="0" result="BackgroundImageFix"/>
<feColorMatrix in="SourceAlpha" type="matrix" values="0 0 0 0 0 0 0 0 0 0 0 0 0 0 0 0 0 0 127 0" result="hardAlpha"/>
<feOffset dx="4" dy="4"/>
<feComposite in2="hardAlpha" operator="out"/>
<feColorMatrix type="matrix" values="0 0 0 0 0.337255 0 0 0 0 0.14902 0 0 0 0 0.768627 0 0 0 1 0"/>
<feBlend mode="normal" in2="BackgroundImageFix" result="effect1_dropShadow_0_21"/>
<feBlend mode="normal" in="SourceGraphic" in2="effect1_dropShadow_0_21" result="shape"/>
</filter>
</defs>
</svg>
